<svg data-v-423bf9ae="" xmlns="http://www.w3.org/2000/svg" viewBox="0 0 546 90" class="iconLeft"><!----><!----><!----><g data-v-423bf9ae="" id="8646c7f5-c991-4cf1-afcb-8f18256b380a" fill="#2B1200" transform="matrix(5.836575485636349,0,0,5.836575485636349,109.70815605338365,0.23346251939574358)"><path d="M6.95 5.28L4.19 12.67L2.73 12.67L0.05 5.28L1.36 5.28L2.99 10.09L2.99 10.09Q3.08 10.36 3.46 11.71L3.46 11.71L3.70 10.91L3.96 10.10L5.65 5.28L6.95 5.28ZM9.83 12.81L9.83 12.81L9.83 12.81Q8.72 12.81 8.16 12.22L8.16 12.22L8.16 12.22Q7.59 11.63 7.59 10.61L7.59 10.61L7.59 10.61Q7.59 9.46 8.35 8.85L8.35 8.85L8.35 8.85Q9.11 8.23 10.79 8.19L10.79 8.19L12.45 8.16L12.45 7.76L12.45 7.76Q12.45 6.86 12.07 6.47L12.07 6.47L12.07 6.47Q11.68 6.08 10.86 6.08L10.86 6.08L10.86 6.08Q10.04 6.08 9.66 6.36L9.66 6.36L9.66 6.36Q9.28 6.64 9.21 7.25L9.21 7.25L7.92 7.14L7.92 7.14Q8.24 5.14 10.89 5.14L10.89 5.14L10.89 5.14Q12.28 5.14 12.99 5.78L12.99 5.78L12.99 5.78Q13.69 6.42 13.69 7.63L13.69 7.63L13.69 10.81L13.69 10.81Q13.69 11.36 13.84 11.64L13.84 11.64L13.84 11.64Q13.98 11.92 14.38 11.92L14.38 11.92L14.38 11.92Q14.56 11.92 14.79 11.87L14.79 11.87L14.79 12.63L14.79 12.63Q14.32 12.74 13.84 12.74L13.84 12.74L13.84 12.74Q13.15 12.74 12.84 12.38L12.84 12.38L12.84 12.38Q12.53 12.02 12.49 11.26L12.49 11.26L12.45 11.26L12.45 11.26Q11.98 12.11 11.35 12.46L11.35 12.46L11.35 12.46Q10.73 12.81 9.83 12.81ZM10.11 11.89L10.11 11.89L10.11 11.89Q10.79 11.89 11.31 11.58L11.31 11.58L11.31 11.58Q11.84 11.27 12.14 10.74L12.14 10.74L12.14 10.74Q12.45 10.20 12.45 9.63L12.45 9.63L12.45 9.02L11.10 9.05L11.10 9.05Q10.23 9.06 9.79 9.23L9.79 9.23L9.79 9.23Q9.34 9.39 9.10 9.73L9.10 9.73L9.10 9.73Q8.86 10.08 8.86 10.63L8.86 10.63L8.86 10.63Q8.86 11.23 9.18 11.56L9.18 11.56L9.18 11.56Q9.51 11.89 10.11 11.89ZM16.96 12.67L15.73 12.67L15.73 2.53L16.96 2.53L16.96 12.67ZM20.06 3.71L18.83 3.71L18.83 2.53L20.06 2.53L20.06 3.71ZM20.06 12.67L18.83 12.67L18.83 5.28L20.06 5.28L20.06 12.67ZM27.88 12.67L26.65 12.67L26.65 7.98L26.65 7.98Q26.65 7.25 26.50 6.85L26.50 6.85L26.50 6.85Q26.36 6.45 26.04 6.27L26.04 6.27L26.04 6.27Q25.73 6.09 25.12 6.09L25.12 6.09L25.12 6.09Q24.23 6.09 23.72 6.70L23.72 6.70L23.72 6.70Q23.21 7.31 23.21 8.39L23.21 8.39L23.21 12.67L21.98 12.67L21.98 6.86L21.98 6.86Q21.98 5.56 21.94 5.28L21.94 5.28L23.10 5.28L23.10 5.28Q23.11 5.31 23.11 5.46L23.11 5.46L23.11 5.46Q23.12 5.61 23.13 5.81L23.13 5.81L23.13 5.81Q23.14 6.00 23.15 6.54L23.15 6.54L23.17 6.54L23.17 6.54Q23.60 5.78 24.15 5.46L24.15 5.46L24.15 5.46Q24.71 5.14 25.54 5.14L25.54 5.14L25.54 5.14Q26.76 5.14 27.32 5.75L27.32 5.75L27.32 5.75Q27.88 6.35 27.88 7.75L27.88 7.75L27.88 12.67ZM32.58 11.71L32.58 12.62L32.58 12.62Q31.97 12.78 31.34 12.78L31.34 12.78L31.34 12.78Q29.86 12.78 29.86 11.11L29.86 11.11L29.86 6.17L29.00 6.17L29.00 5.28L29.91 5.28L30.27 3.62L31.09 3.62L31.09 5.28L32.46 5.28L32.46 6.17L31.09 6.17L31.09 10.84L31.09 10.84Q31.09 11.38 31.26 11.59L31.26 11.59L31.26 11.59Q31.44 11.81 31.87 11.81L31.87 11.81L31.87 11.81Q32.12 11.81 32.58 11.71L32.58 11.71ZM39.85 9.24L34.57 9.24L34.57 9.24Q34.57 10.51 35.10 11.20L35.10 11.20L35.10 11.20Q35.62 11.89 36.63 11.89L36.63 11.89L36.63 11.89Q37.43 11.89 37.92 11.57L37.92 11.57L37.92 11.57Q38.40 11.25 38.57 10.75L38.57 10.75L39.65 11.06L39.65 11.06Q38.99 12.81 36.63 12.81L36.63 12.81L36.63 12.81Q34.99 12.81 34.14 11.83L34.14 11.83L34.14 11.83Q33.28 10.86 33.28 8.93L33.28 8.93L33.28 8.93Q33.28 7.10 34.14 6.12L34.14 6.12L34.14 6.12Q34.99 5.14 36.59 5.14L36.59 5.14L36.59 5.14Q39.85 5.14 39.85 9.07L39.85 9.07L39.85 9.24ZM34.58 8.29L38.58 8.29L38.58 8.29Q38.47 7.12 37.98 6.59L37.98 6.59L37.98 6.59Q37.49 6.05 36.57 6.05L36.57 6.05L36.57 6.05Q35.67 6.05 35.15 6.65L35.15 6.65L35.15 6.65Q34.62 7.25 34.58 8.29L34.58 8.29ZM42.35 8.94L42.35 8.94L42.35 8.94Q42.35 10.42 42.81 11.13L42.81 11.13L42.81 11.13Q43.28 11.84 44.21 11.84L44.21 11.84L44.21 11.84Q44.87 11.84 45.31 11.48L45.31 11.48L45.31 11.48Q45.75 11.13 45.86 10.39L45.86 10.39L47.10 10.47L47.10 10.47Q46.96 11.54 46.19 12.17L46.19 12.17L46.19 12.17Q45.42 12.81 44.25 12.81L44.25 12.81L44.25 12.81Q42.70 12.81 41.88 11.83L41.88 11.83L41.88 11.83Q41.06 10.85 41.06 8.97L41.06 8.97L41.06 8.97Q41.06 7.10 41.88 6.12L41.88 6.12L41.88 6.12Q42.70 5.14 44.24 5.14L44.24 5.14L44.24 5.14Q45.37 5.14 46.12 5.73L46.12 5.73L46.12 5.73Q46.87 6.32 47.06 7.35L47.06 7.35L45.79 7.44L45.79 7.44Q45.70 6.83 45.31 6.47L45.31 6.47L45.31 6.47Q44.92 6.10 44.20 6.10L44.20 6.10L44.20 6.10Q43.22 6.10 42.79 6.75L42.79 6.75L42.79 6.75Q42.35 7.40 42.35 8.94ZM53.24 8.94L53.24 8.94L53.24 8.94Q53.24 10.42 53.70 11.13L53.70 11.13L53.70 11.13Q54.17 11.84 55.10 11.84L55.10 11.84L55.10 11.84Q55.76 11.84 56.20 11.48L56.20 11.48L56.20 11.48Q56.64 11.13 56.75 10.39L56.75 10.39L57.99 10.47L57.99 10.47Q57.85 11.54 57.08 12.17L57.08 12.17L57.08 12.17Q56.31 12.81 55.14 12.81L55.14 12.81L55.14 12.81Q53.59 12.81 52.77 11.83L52.77 11.83L52.77 11.83Q51.95 10.85 51.95 8.97L51.95 8.97L51.95 8.97Q51.95 7.10 52.77 6.12L52.77 6.12L52.77 6.12Q53.59 5.14 55.13 5.14L55.13 5.14L55.13 5.14Q56.26 5.14 57.01 5.73L57.01 5.73L57.01 5.73Q57.76 6.32 57.95 7.35L57.95 7.35L56.68 7.44L56.68 7.44Q56.59 6.83 56.20 6.47L56.20 6.47L56.20 6.47Q55.81 6.10 55.09 6.10L55.09 6.10L55.09 6.10Q54.11 6.10 53.68 6.75L53.68 6.75L53.68 6.75Q53.24 7.40 53.24 8.94ZM61.19 12.81L61.19 12.81L61.19 12.81Q60.07 12.81 59.51 12.22L59.51 12.22L59.51 12.22Q58.95 11.63 58.95 10.61L58.95 10.61L58.95 10.61Q58.95 9.46 59.71 8.85L59.71 8.85L59.71 8.85Q60.46 8.23 62.15 8.19L62.15 8.19L63.81 8.16L63.81 7.76L63.81 7.76Q63.81 6.86 63.42 6.47L63.42 6.47L63.42 6.47Q63.04 6.08 62.22 6.08L62.22 6.08L62.22 6.08Q61.39 6.08 61.02 6.36L61.02 6.36L61.02 6.36Q60.64 6.64 60.57 7.25L60.57 7.25L59.28 7.14L59.28 7.14Q59.60 5.14 62.25 5.14L62.25 5.14L62.25 5.14Q63.64 5.14 64.35 5.78L64.35 5.78L64.35 5.78Q65.05 6.42 65.05 7.63L65.05 7.63L65.05 10.81L65.05 10.81Q65.05 11.36 65.19 11.64L65.19 11.64L65.19 11.64Q65.34 11.92 65.74 11.92L65.74 11.92L65.74 11.92Q65.92 11.92 66.14 11.87L66.14 11.87L66.14 12.63L66.14 12.63Q65.68 12.74 65.19 12.74L65.19 12.74L65.19 12.74Q64.51 12.74 64.20 12.38L64.20 12.38L64.20 12.38Q63.89 12.02 63.85 11.26L63.85 11.26L63.81 11.26L63.81 11.26Q63.33 12.11 62.71 12.46L62.71 12.46L62.71 12.46Q62.08 12.81 61.19 12.81ZM61.47 11.89L61.47 11.89L61.47 11.89Q62.15 11.89 62.67 11.58L62.67 11.58L62.67 11.58Q63.20 11.27 63.50 10.74L63.50 10.74L63.50 10.74Q63.81 10.20 63.81 9.63L63.81 9.63L63.81 9.02L62.46 9.05L62.46 9.05Q61.59 9.06 61.14 9.23L61.14 9.23L61.14 9.23Q60.70 9.39 60.46 9.73L60.46 9.73L60.46 9.73Q60.22 10.08 60.22 10.63L60.22 10.63L60.22 10.63Q60.22 11.23 60.54 11.56L60.54 11.56L60.54 11.56Q60.87 11.89 61.47 11.89ZM68.35 12.67L67.12 12.67L67.12 7L67.12 7Q67.12 6.22 67.07 5.28L67.07 5.28L68.24 5.28L68.24 5.28Q68.29 6.54 68.29 6.79L68.29 6.79L68.32 6.79L68.32 6.79Q68.61 5.84 69.00 5.49L69.00 5.49L69.00 5.49Q69.38 5.14 70.08 5.14L70.08 5.14L70.08 5.14Q70.32 5.14 70.57 5.21L70.57 5.21L70.57 6.34L70.57 6.34Q70.33 6.27 69.92 6.27L69.92 6.27L69.92 6.27Q69.15 6.27 68.75 6.93L68.75 6.93L68.75 6.93Q68.35 7.59 68.35 8.82L68.35 8.82L68.35 12.67ZM74.59 11.71L74.59 12.62L74.59 12.62Q73.99 12.78 73.35 12.78L73.35 12.78L73.35 12.78Q71.87 12.78 71.87 11.11L71.87 11.11L71.87 6.17L71.02 6.17L71.02 5.28L71.92 5.28L72.28 3.62L73.10 3.62L73.10 5.28L74.47 5.28L74.47 6.17L73.10 6.17L73.10 10.84L73.10 10.84Q73.10 11.38 73.28 11.59L73.28 11.59L73.28 11.59Q73.45 11.81 73.88 11.81L73.88 11.81L73.88 11.81Q74.13 11.81 74.59 11.71L74.59 11.71Z"></path></g><defs data-v-423bf9ae=""><linearGradient data-v-423bf9ae="" gradientTransform="rotate(25)" id="e177319c-74b5-4242-847d-e6a73fcbf50b" x1="0%" y1="0%" x2="100%" y2="0%"><stop data-v-423bf9ae="" offset="0%" style="stop-color: rgb(121, 35, 0); stop-opacity: 1;"></stop><stop data-v-423bf9ae="" offset="100%" style="stop-color: rgb(243, 112, 0); stop-opacity: 1;"></stop></linearGradient></defs><g data-v-423bf9ae="" id="406cb7cc-988d-44f2-b73d-9f5f99cb6f55" transform="matrix(2.8125,0,0,2.8125,0,0)" stroke="none" fill="url(#e177319c-74b5-4242-847d-e6a73fcbf50b)"><path d="M16 32c8.837 0 16-7.163 16-16S24.837 0 16 0 0 7.163 0 16s7.163 16 16 16zM14.817 6.421h2v8.886h8.887v2H14.817V6.421zm-5.959.437h2v14.283h14.283v2H8.858V6.858z"></path></g><!----></svg>